<?xml version="1.0" encoding="iso-8859-1"?>
<!-- Uploaded to: SVG Repo, www.svgrepo.com, Generator: SVG Repo Mixer Tools -->
<svg height="800px" width="800px" version="1.1" id="Layer_1" xmlns="http://www.w3.org/2000/svg" xmlns:xlink="http://www.w3.org/1999/xlink" 
	 viewBox="0 0 512.001 512.001" xml:space="preserve">
<path style="fill:#B36E44;" d="M271.976,405.71l-166.512,58.344L0.622,164.704c-1.768-5.048,0.774-10.534,5.679-12.252
	l148.751-52.121c4.905-1.719,10.314,0.98,12.082,6.029L271.976,405.71z"/>
<path style="fill:#8C5635;" d="M118.585,433.779L18.552,148.16l-12.25,4.292c-4.905,1.719-7.488,7.089-5.77,11.994l101.884,290.906
	l21.587-7.564L118.585,433.779z"/>
<path style="fill:#A1633D;" d="M270.41,429.707l-148.751,52.121c-4.905,1.719-10.273-0.865-11.991-5.771l-7.252-20.705
	l166.512-58.344l7.252,20.705C277.898,422.619,275.315,427.988,270.41,429.707z"/>
<path style="fill:#FFE666;" d="M248.703,339.27c0,0-45.735-57.656-140.59-134.532c-12.375,56.438-18.842,102.67-22.226,135.685
	c-3.762,36.767-3.697,57.194-3.697,57.194l-24.253-69.265c-0.496-17.915,1.056-37.608,3.697-57.172
	c6.252-46.23,18.582-91.718,24.274-111.282c1.444-4.97,7.351-7.038,11.576-4.064c23.702,16.718,90.662,66.031,126.966,114.171
	L248.703,339.27z"/>
<path style="fill:#B36E44;" d="M453.298,382.386l-173.416-32.493l58.54-312.567c0.957-5.109,5.874-8.475,10.983-7.517
	l154.917,29.027c5.109,0.957,8.473,5.874,7.517,10.982L453.298,382.386z"/>
<path style="fill:#8C5635;" d="M304.357,344.545l58.475-312.22l-13.426-2.516c-5.108-0.957-10.026,2.408-10.367,4.23L281.68,340.296
	L304.357,344.545z"/>
<path style="fill:#A1633D;" d="M440.074,401.869l-154.917-29.027c-5.109-0.957-8.473-5.874-7.517-10.982l4.039-21.565
	l173.416,32.493l-4.039,21.564C450.101,399.461,445.184,402.827,440.074,401.869z"/>
<path style="fill:#FFE666;" d="M479.869,240.524l-13.506,72.132c0,0-10.909-72.791-54.779-186.745
	c-38.255,42.081-66.614,78.428-85.994,105.245c-22.236,30.763-32.649,49.002-32.649,49.002l13.517-72.132
	c8.72-16.169,20.232-32.886,32.618-48.872c28.262-36.487,61.085-69.2,75.614-83.181c3.729-3.579,9.885-2.425,12.061,2.263
	C438.962,104.537,472.41,180.69,479.869,240.524z"/>
<circle style="fill:#362928;" cx="99.402" cy="179.859" r="21.778"/>
<path style="fill:#2E2322;" d="M115.57,189.069c-11.351,3.977-23.776-2.002-27.752-13.356c-1.682-4.803-1.566-9.793-0.031-14.26
	c-8.397,5.293-12.355,15.841-8.935,25.607c3.976,11.354,16.401,17.333,27.752,13.356c6.548-2.295,11.292-7.408,13.384-13.499
	C118.624,187.778,117.156,188.514,115.57,189.069z"/>
<circle style="fill:#362928;" cx="416.434" cy="100.008" r="21.777"/>
<path style="fill:#2E2322;" d="M432.599,109.215c-11.351,3.977-23.776-2.002-27.752-13.356c-1.682-4.803-1.566-9.793-0.031-14.26
	c-8.397,5.293-12.355,15.841-8.935,25.607c3.976,11.354,16.402,17.333,27.753,13.356c6.548-2.295,11.292-7.408,13.384-13.499
	C435.654,107.924,434.185,108.659,432.599,109.215z"/>
<g>
	<path style="fill:#EDBF31;" d="M82.19,397.616l-24.253-69.265c-0.496-17.915,1.056-37.608,3.697-57.172l24.253,69.244
		C82.126,377.191,82.19,397.616,82.19,397.616z"/>
	<path style="fill:#EDBF31;" d="M339.074,159.154l-13.484,72.003c-22.236,30.763-32.649,49.002-32.649,49.002l13.517-72.132
		C315.177,191.857,326.689,175.14,339.074,159.154z"/>
</g>
</svg>